<svg xmlns="http://www.w3.org/2000/svg" viewBox="0 0 90 200" fill="none" stroke="#9b6b4a" stroke-linecap="round" stroke-linejoin="round">
  <path d="M 42 196 L 43 95 M 48 196 L 47 95" stroke-width="2"/>
  <path d="M 45 95 Q 28 92 8 102 M 45 95 Q 34 86 20 80 M 45 95 Q 56 86 70 80 M 45 95 Q 62 92 82 102" stroke-width="1.6"/>
  <path d="M 7 80 Q 2 70 5 60 Q 9 50 18 42 Q 28 34 38 30 Q 45 27 52 30 Q 62 34 72 42 Q 81 50 85 60 Q 88 70 83 80" stroke-width="1.6"/>
  <path d="M 45 27 Q 42 52 18 68 M 45 27 Q 48 52 72 68 M 45 27 L 45 93" stroke-width="1"/>
</svg>
